<?xml version="1.0" encoding="UTF-8" standalone="no"?>
<svg
   viewBox="0 0 124.44 144.00"
   id="logo"
   version="1.1"
   xml:space="preserve"
   inkscape:export-xdpi="96"
   inkscape:export-ydpi="96"
   inkscape:version="1.2.2 (732a01da63, 2022-12-09)"
   sodipodi:docname="logo_inkscape.svg"
   inkscape:export-filename="logo_plain.png"
   xmlns:inkscape="http://www.inkscape.org/namespaces/inkscape"
   xmlns:sodipodi="http://sodipodi.sourceforge.net/DTD/sodipodi-0.dtd"
   xmlns:xlink="http://www.w3.org/1999/xlink"
   xmlns="http://www.w3.org/2000/svg"
   xmlns:svg="http://www.w3.org/2000/svg"><sodipodi:namedview
   id="namedview105"
   pagecolor="#ffffff"
   bordercolor="#000000"
   borderopacity="0.25"
   inkscape:showpageshadow="2"
   inkscape:pageopacity="0.0"
   inkscape:pagecheckerboard="0"
   inkscape:deskcolor="#d1d1d1"
   showgrid="false"
   inkscape:zoom="1.4182101"
   inkscape:cx="137.84981"
   inkscape:cy="139.96515"
   inkscape:window-width="1920"
   inkscape:window-height="991"
   inkscape:window-x="-9"
   inkscape:window-y="-9"
   inkscape:window-maximized="1"
   inkscape:current-layer="logo" />
<defs
   id="defs4"><linearGradient
     id="linearGradient991"><stop
       style="stop-color:#eea391;stop-opacity:1;"
       offset="0"
       id="stop987" /><stop
       style="stop-color:#fdfa81;stop-opacity:1;"
       offset="0.25235295"
       id="stop4079" /><stop
       style="stop-color:#c3dfa0;stop-opacity:1;"
       offset="0.5"
       id="stop5392" /><stop
       style="stop-color:#91d9ed;stop-opacity:1;"
       offset="0.75"
       id="stop7119" /><stop
       style="stop-color:#a0bedf;stop-opacity:1;"
       offset="1"
       id="stop989" /></linearGradient><style
     type="text/css"
     id="style6">
    line, polyline, path, rect, circle {
      fill: none;
      stroke: #000000;
      stroke-linecap: round;
      stroke-linejoin: round;
      stroke-miterlimit: 10.00;
    }
  </style><linearGradient
     xlink:href="#linearGradient991"
     id="linearGradient10849"
     x1="62.105"
     y1="2.743"
     x2="62.105"
     y2="141.48599"
     gradientUnits="userSpaceOnUse"
     spreadMethod="pad" /><clipPath
     clipPathUnits="userSpaceOnUse"
     id="clipPath415"><rect
       style="fill:#ffffff;stroke-width:1.173;stroke-linejoin:bevel;stroke-miterlimit:10;stop-color:#000000"
       id="rect417"
       width="13.347205"
       height="24.320021"
       x="26.145033"
       y="26.719654"
       rx="8.3149604e-07"
       ry="1.8887084e-06" /></clipPath><clipPath
     clipPathUnits="userSpaceOnUse"
     id="clipPath427"><rect
       style="fill:#ffffff;stroke-width:1.173;stroke-linejoin:bevel;stroke-miterlimit:10;stop-color:#000000"
       id="rect429"
       width="16.397362"
       height="29.56144"
       x="79.677322"
       y="18.937798"
       rx="8.3149604e-07"
       ry="1.8887084e-06" /></clipPath><clipPath
     clipPathUnits="userSpaceOnUse"
     id="clipPath432"><rect
       style="fill:#ffffff;stroke-width:1.173;stroke-linejoin:bevel;stroke-miterlimit:10;stop-color:#000000"
       id="rect434"
       width="17.457321"
       height="33.487568"
       x="62.220001"
       y="15.011668"
       rx="8.3149604e-07"
       ry="1.8887084e-06" /></clipPath><clipPath
     clipPathUnits="userSpaceOnUse"
     id="clipPath415-6"><rect
       style="fill:#ffffff;stroke-width:1.173;stroke-linejoin:bevel;stroke-miterlimit:10;stop-color:#000000"
       id="rect417-1"
       width="13.347205"
       height="24.320021"
       x="26.145033"
       y="26.719654"
       rx="8.3149604e-07"
       ry="1.8887084e-06" /></clipPath><clipPath
     clipPathUnits="userSpaceOnUse"
     id="clipPath432-0"><rect
       style="fill:#ffffff;stroke-width:1.173;stroke-linejoin:bevel;stroke-miterlimit:10;stop-color:#000000"
       id="rect434-7"
       width="17.457321"
       height="33.487568"
       x="62.220001"
       y="15.011668"
       rx="8.3149604e-07"
       ry="1.8887084e-06" /></clipPath><clipPath
     clipPathUnits="userSpaceOnUse"
     id="clipPath427-3"><rect
       style="fill:#ffffff;stroke-width:1.173;stroke-linejoin:bevel;stroke-miterlimit:10;stop-color:#000000"
       id="rect429-9"
       width="16.397362"
       height="29.56144"
       x="79.677322"
       y="18.937798"
       rx="8.3149604e-07"
       ry="1.8887084e-06" /></clipPath><linearGradient
     id="gradientFill-1"
     x1="0"
     x2="1"
     y1="0"
     y2="1"
     gradientUnits="objectBoundingBox"
     spreadMethod="pad"><stop
       offset="0"
       stop-color="rgb(203,206,208)"
       stop-opacity="1"
       id="stop285" /><stop
       offset="1"
       stop-color="rgb(132,131,139)"
       stop-opacity="1"
       id="stop287" /></linearGradient><linearGradient
     id="gradientFill-2"
     x1="0"
     x2="1"
     y1="0"
     y2="1"
     gradientUnits="objectBoundingBox"
     spreadMethod="pad"><stop
       offset="0"
       stop-color="rgb(39,109,195)"
       stop-opacity="1"
       id="stop290" /><stop
       offset="1"
       stop-color="rgb(22,92,170)"
       stop-opacity="1"
       id="stop292" /></linearGradient><pattern
     id="EMFhbasepattern"
     patternUnits="userSpaceOnUse"
     width="6"
     height="6"
     x="0"
     y="0" /></defs><polyline
   points="2.285 37.429 2.285 106.799 62.105 141.486 121.926 106.799 121.926 37.429 62.105 2.743 2.285 37.429"
   style="mix-blend-mode:normal;fill:#ffffff;fill-opacity:1;fill-rule:nonzero;stroke:#000000;stroke-width:3.63051344;stroke-dasharray:none;stroke-opacity:1"
   clip-path="none"
   id="polyline29"
   transform="matrix(0.94751067,0,0,0.95858784,3.4338761,2.8933862)" /><rect
   width="133.33333%"
   height="133.33333%"
   style="fill:none;stroke:none;stroke-width:1.33333;stroke-linecap:round;stroke-linejoin:round;stroke-miterlimit:10"
   id="rect6"
   x="-119.34284"
   y="-88.484215" /><rect
   x="-262.77606"
   y="-168.20638"
   width="750.78717"
   height="562.53766"
   id="rect15"
   style="stroke-width:2.51267" />
<g
   id="g4425"
   transform="matrix(1.0917476,0,0,1.0917476,-4.51244,-7.331009)"><path
     id="path695"
     style="fill:#ff0000;fill-opacity:1;stroke:#000000;stroke-width:0.21728;stroke-linecap:round;stroke-linejoin:round;stroke-miterlimit:10;stroke-dasharray:none;stroke-opacity:1"
     d="m 39.447266,28.158203 c -0.194008,0 -0.9639,1.265925 -1.09961,1.806641 -0.146141,0.582773 -0.142202,0.585937 1.072266,0.585937 0.781077,0 1.21875,-0.09206 1.21875,-0.253906 0,-0.264321 -1.044336,-2.138672 -1.191406,-2.138672 z m -1.201172,3.042969 v 1.414062 1.41211 h 1.195312 1.197266 v -1.41211 -1.414062 h -1.197266 z m 0,3.478516 v 2.794921 c 0,1.537235 -0.06262,3.248158 -0.138672,3.802735 -0.116906,0.852927 -0.211798,1.009765 -0.617188,1.009765 h -0.478515 l -0.148438,6.791016 -0.130859,5.988281 c -7.24184,4.829831 -11.724609,11.51444 -11.72461,18.900391 0,10.475636 9.022065,19.532883 22.140626,23.896484 V 87.230469 c -4.059039,-3.104178 -6.488282,-7.018848 -6.488282,-11.277344 0,-4.25867 2.428945,-8.171175 6.488282,-11.273437 V 50.068359 c -1.818143,0.605631 -3.559072,1.301113 -5.207032,2.078125 v -4.669922 -5.189453 h -0.652344 -0.65039 v -3.804687 -3.802734 h -1.197266 z m 49.130859,17.291015 v 8.146485 c 7.760601,2.738098 12.626957,7.89424 12.626957,15.835937 0,7.947246 -4.866356,13.105991 -12.626957,15.845703 v 4.160156 c 10.44638,-4.807408 17.300777,-12.860906 17.300777,-21.992187 0,-9.131318 -6.854325,-17.187551 -17.300777,-21.996094 z"
     sodipodi:nodetypes="scsssccccccccccscscccsccscccccccccccccsccsc" /><path
     id="path374"
     style="fill:#1e64b6;fill-opacity:1;fill-rule:evenodd;stroke:#000000;stroke-width:0.110482;stroke-opacity:1"
     d="m 56.771021,59.441577 v 44.864063 l 3.300868,-0.002 0.05105,2.33565 0.148372,6.79159 h 0.480213 c 0.40539,0 0.500511,0.15536 0.617417,1.00829 0.07605,0.55458 0.137204,2.26618 0.137204,3.80342 v 2.79512 h 1.196546 1.194949 v -3.80342 -3.80341 h 0.65092 0.652516 v -5.18982 -3.94062 l 5.162694,-0.003 -0.008,-17.562093 h 3.650261 c 0.74243,0 1.069077,0.221346 1.820344,0.831201 0.910361,0.733592 2.377136,3.260985 2.377136,3.260985 l 7.185652,13.477887 H 100.74164 L 91.241066,88.281284 c 0,0 -0.29167,-0.635159 -0.883848,-1.271529 -0.609853,-0.645207 -1.449098,-1.132538 -1.935212,-1.380015 -1.396478,-0.707077 -3.8098,-1.431068 -3.8098,-1.431068 0,0 11.879298,-0.884642 11.879298,-12.710499 0,-11.825859 -12.428113,-12.046816 -12.428113,-12.046816 z m 13.699643,9.722328 8.229039,0.0096 c 0,0 3.817777,-0.212784 3.817777,3.738006 0,3.871246 -3.817777,3.879997 -3.817777,3.879997 h -8.229039 z m -8.964516,52.526735 v 1.41193 1.41351 h 1.196546 1.194949 v -1.41351 -1.41193 h -1.194949 z m 1.172615,3.47795 c -1.214471,0 -1.218246,0.001 -1.072105,0.58392 0.13571,0.54072 0.906814,1.80599 1.100822,1.80598 0.147072,0 1.190163,-1.8735 1.190163,-2.13782 0,-0.16185 -0.437801,-0.25208 -1.21888,-0.25208 z" /><path
     d="m 64.31955,47.011777 c -5.246463,0 -10.252325,0.6841 -14.837891,1.91992 v 13.57422 c 5.438708,-3.13572 12.810987,-5.06445 20.935547,-5.06445 4.987125,0 9.579657,0.50057 13.576171,1.5332 v -8.47851 c -5.80544,-2.21351 -12.515706,-3.48438 -19.673827,-3.48438 z m -14.837891,43.83594 v 9.591793 c 4.587282,1.23398 9.591722,1.91992 14.837891,1.91992 7.158121,0 13.868387,-1.27142 19.673827,-3.48436 v -4.4922 c -3.996574,1.03327 -8.588939,1.53516 -13.576171,1.53516 -8.12475,0 -15.496803,-1.932143 -20.935547,-5.070313 z"
     style="fill:#000000;fill-opacity:1;stroke:#000000;stroke-width:0.21728;stroke-linecap:round;stroke-linejoin:round;stroke-miterlimit:10;stroke-dasharray:none;stroke-opacity:1"
     id="path4338"
     sodipodi:nodetypes="sccsccsccsccsc" /></g></svg>
